<?xml version="1.0" standalone="no"?>
<!DOCTYPE svg PUBLIC "-//W3C//DTD SVG 20010904//EN"
 "http://www.w3.org/TR/2001/REC-SVG-20010904/DTD/svg10.dtd">
<svg version="1.0" xmlns="http://www.w3.org/2000/svg"
 width="400.000000pt" height="400.000000pt" viewBox="0 0 400.000000 400.000000"
 preserveAspectRatio="xMidYMid meet">
<metadata>
Created by potrace 1.11, written by Peter Selinger 2001-2013
</metadata>
<g transform="translate(0.000000,400.000000) scale(0.100000,-0.100000)"
fill="#000000" stroke="none">
<path d="M0 2000 l0 -2000 2000 0 2000 0 0 2000 0 2000 -2000 0 -2000 0 0
-2000z m892 442 l3 -419 389 419 390 418 129 0 130 0 -19 -21 c-10 -12 -171
-182 -356 -378 -186 -196 -338 -358 -338 -361 0 -3 147 -172 326 -375 179
-204 348 -396 376 -427 l50 -58 -140 0 -141 0 -317 358 c-174 196 -320 357
-323 357 -3 0 -41 -36 -83 -81 l-78 -80 0 -277 0 -277 -110 0 -110 0 0 810 0
810 110 0 110 0 2 -418z m1550 -1 l3 -418 390 418 389 419 130 0 129 0 -19
-21 c-10 -12 -171 -182 -356 -378 -186 -195 -338 -358 -338 -361 0 -4 147
-172 326 -376 179 -203 349 -395 376 -426 l50 -58 -140 0 -140 0 -318 358
c-174 196 -320 357 -323 357 -3 0 -41 -36 -83 -81 l-78 -80 0 -277 0 -277
-110 0 -110 0 0 810 0 810 110 0 110 0 2 -419z"/>
</g>
</svg>
